<svg width="214" height="56" viewBox="0 0 214 56" fill="none" xmlns="http://www.w3.org/2000/svg">
<path d="M92.0938 37.0153L89.7953 44.1035C89.7652 44.2183 89.6966 44.3194 89.6006 44.3895C89.505 44.4597 89.3878 44.4948 89.269 44.489H83.6897C83.3558 44.489 83.2571 44.2962 83.3088 44.0186L92.893 16.3572C93.2122 15.4159 93.371 14.4276 93.3629 13.4336C93.3591 13.3518 93.3865 13.2716 93.4397 13.2096C93.4933 13.1475 93.5684 13.1082 93.6498 13.0999H101.316C101.556 13.0999 101.65 13.1469 101.702 13.3866L112.578 44.0564C112.672 44.2962 112.625 44.489 112.338 44.489H106.12C106.006 44.5083 105.888 44.4851 105.79 44.4234C105.692 44.3618 105.62 44.2662 105.589 44.1551L103.145 37.0153H92.0938ZM101.391 31.0223C100.451 27.859 98.5147 22.0635 97.6076 18.6604H97.5606C96.7895 21.8707 95.0647 27.121 93.8001 31.0223H101.391Z" fill="#B4B2C9"/>
<path d="M113.344 32.7943C113.344 25.9412 118.472 20.1927 127.243 20.1927C127.624 20.1927 128.103 20.2397 128.822 20.2867V10.8484C128.817 10.8033 128.822 10.7576 128.837 10.7147C128.852 10.6718 128.876 10.6329 128.908 10.6007C128.94 10.5686 128.979 10.5442 129.022 10.5293C129.065 10.5144 129.111 10.5094 129.156 10.5147H135.196C135.436 10.5147 135.483 10.6087 135.483 10.8014V39.1209C135.47 40.2898 135.535 41.458 135.676 42.618C135.676 42.8578 135.629 42.9565 135.342 43.0506C132.355 44.3197 129.144 44.972 125.899 44.9682C118.806 44.9682 113.344 40.9448 113.344 32.7943ZM128.822 25.9929C128.251 25.8061 127.65 25.7249 127.05 25.7532C123.36 25.7532 120.197 28.0047 120.197 32.4606C120.197 37.2032 122.928 39.2666 126.571 39.2666C127.332 39.2986 128.093 39.2019 128.822 38.9798V25.9929Z" fill="#B4B2C9"/>
<path d="M162.928 32.4606C162.928 39.981 158.04 44.9682 151.139 44.9682C142.942 44.9682 139.304 38.7874 139.304 32.6063C139.304 25.8002 143.854 20.1927 151.234 20.1927C158.952 20.1927 162.928 25.9929 162.928 32.4606ZM146.059 32.5076C146.059 36.7379 148.023 39.4078 151.229 39.4078C154.012 39.4078 156.117 37.0153 156.117 32.6063C156.117 28.8461 154.585 25.7532 150.947 25.7532C148.169 25.7532 146.059 28.2444 146.059 32.5076Z" fill="#B4B2C9"/>
<path d="M173.001 10.5147C173.382 10.5147 173.471 10.5617 173.471 10.8954V20.7191C174.783 20.3678 176.136 20.1908 177.494 20.1927C184.545 20.1927 188.996 25.175 188.996 31.5957C188.996 40.5593 181.903 44.9682 174.623 44.9682C172.074 44.9859 169.538 44.6135 167.102 43.8636C167.017 43.817 166.946 43.7491 166.896 43.6666C166.846 43.5841 166.818 43.4901 166.815 43.3937V10.8484C166.815 10.6087 166.909 10.5147 167.149 10.5147H173.001ZM176.291 25.8472C175.337 25.8353 174.387 25.9652 173.471 26.2326V39.2431C174.052 39.3753 174.647 39.4386 175.243 39.4312C178.886 39.4312 182.19 37.2267 182.19 32.2444C182.2 27.8589 179.661 25.8472 176.305 25.8472H176.291Z" fill="#B4B2C9"/>
<path d="M198.373 34.3313C198.613 37.0622 200.531 39.3136 205.226 39.3136C207.246 39.3526 209.252 38.9767 211.121 38.2091C211.267 38.1151 211.408 38.1621 211.408 38.4488V43.0035C211.408 43.337 211.314 43.4735 211.074 43.5768C209.156 44.4889 207.05 44.987 203.741 44.987C194.731 44.987 191.572 38.8059 191.572 32.8648C191.572 26.2514 195.643 20.2115 203.168 20.2115C210.402 20.2115 213.278 25.819 213.278 30.5522C213.312 31.6278 213.232 32.704 213.038 33.7626C213.032 33.8626 212.989 33.9569 212.918 34.0278C212.848 34.0987 212.753 34.1414 212.653 34.148C211.013 34.303 209.365 34.3673 207.718 34.3407L198.373 34.3313ZM204.606 29.6827C205.405 29.7119 206.205 29.6789 206.999 29.584V29.2503C206.985 28.7327 206.868 28.2232 206.655 27.7513C206.442 27.2794 206.137 26.8548 205.758 26.5021C205.379 26.1493 204.934 25.8757 204.448 25.6971C203.962 25.5185 203.445 25.4385 202.928 25.4618C199.91 25.4618 198.613 27.7179 198.326 29.6921L204.606 29.6827Z" fill="#B4B2C9"/>
<path d="M39.5442 0H62.7309V55.5158L39.5442 0Z" fill="#B4B2C9"/>
<path d="M23.2056 0H0V55.5158L23.2056 0Z" fill="#B4B2C9"/>
<path d="M31.3747 20.4606L46.1478 55.5158H36.4652L32.0469 44.3525H21.2361L31.3747 20.4606Z" fill="#B4B2C9"/>
</svg>
