<svg width="179" height="56" viewBox="0 0 179 56" fill="none" xmlns="http://www.w3.org/2000/svg">
<path d="M94.6893 14.0701C94.6893 16.0881 93.0789 17.7137 91.0796 17.7137C89.08 17.7137 87.4695 16.0881 87.4695 14.0701C87.4695 12.0521 89.0245 10.4264 91.0796 10.4264C93.1343 10.4825 94.6893 12.1081 94.6893 14.0701ZM79.8055 21.4134C79.8055 21.7497 79.8055 22.3103 79.8055 22.3103C79.8055 22.3103 78.0841 20.0681 74.4185 20.0681C68.3654 20.0681 63.6445 24.7207 63.6445 31.1671C63.6445 37.5576 68.3095 42.2664 74.4185 42.2664C78.1396 42.2664 79.8055 39.9681 79.8055 39.9681V40.9208C79.8055 41.3692 80.1388 41.7056 80.583 41.7056H85.0816V20.6286C85.0816 20.6286 80.9718 20.6286 80.583 20.6286C80.1388 20.6286 79.8055 21.021 79.8055 21.4134ZM79.8055 34.9229C78.9725 36.1562 77.3066 37.2212 75.3074 37.2212C71.7528 37.2212 69.0315 34.979 69.0315 31.1671C69.0315 27.3553 71.7528 25.1131 75.3074 25.1131C77.2511 25.1131 79.028 26.2343 79.8055 27.4114V34.9229ZM88.4139 20.6286H93.7454V41.7056H88.4139V20.6286ZM168.052 20.0681C164.387 20.0681 162.665 22.3103 162.665 22.3103V10.4825H157.334V41.7056C157.334 41.7056 161.444 41.7056 161.832 41.7056C162.277 41.7056 162.61 41.3132 162.61 40.9208V39.9681C162.61 39.9681 164.332 42.2664 167.997 42.2664C174.05 42.2664 178.771 37.5576 178.771 31.1671C178.771 24.7768 174.05 20.0681 168.052 20.0681ZM167.164 37.1652C165.109 37.1652 163.499 36.1001 162.665 34.8669V27.3553C163.499 26.2343 165.276 25.057 167.164 25.057C170.718 25.057 173.439 27.2993 173.439 31.1111C173.439 34.9229 170.718 37.1652 167.164 37.1652ZM154.557 29.2052V41.7616H149.226V29.8218C149.226 26.3463 148.115 24.9449 145.116 24.9449C143.506 24.9449 141.839 25.7858 140.784 27.019V41.7056H135.453V20.6286H139.674C140.118 20.6286 140.451 21.021 140.451 21.4134V22.3103C142.006 20.6847 144.061 20.0681 146.116 20.0681C148.448 20.0681 150.392 20.7407 151.947 22.0861C153.835 23.6556 154.557 25.6737 154.557 29.2052ZM122.513 20.0681C118.848 20.0681 117.126 22.3103 117.126 22.3103V10.4825H111.794V41.7056C111.794 41.7056 115.904 41.7056 116.293 41.7056C116.737 41.7056 117.07 41.3132 117.07 40.9208V39.9681C117.07 39.9681 118.792 42.2664 122.457 42.2664C128.511 42.2664 133.231 37.5576 133.231 31.1671C133.287 24.7768 128.566 20.0681 122.513 20.0681ZM121.624 37.1652C119.57 37.1652 117.959 36.1001 117.126 34.8669V27.3553C117.959 26.2343 119.736 25.057 121.624 25.057C125.179 25.057 127.9 27.2993 127.9 31.1111C127.9 34.9229 125.179 37.1652 121.624 37.1652ZM107.185 20.0681C108.796 20.0681 109.629 20.3483 109.629 20.3483V25.3374C109.629 25.3374 105.186 23.8238 102.409 27.019V41.7616H97.0773V20.6286C97.0773 20.6286 101.187 20.6286 101.576 20.6286C102.02 20.6286 102.353 21.021 102.353 21.4134V22.3103C103.353 21.1331 105.519 20.0681 107.185 20.0681ZM51.8156 39.7997C51.5378 39.1273 51.26 38.3984 50.9826 37.7818C50.538 36.7728 50.0938 35.8198 49.705 34.9229L49.6495 34.8669C45.8175 26.4584 41.7077 17.9379 37.3761 9.52953L37.2095 9.19318C36.7652 8.35236 36.3209 7.45547 35.8766 6.55857C35.3213 5.54956 34.7659 4.48447 33.8773 3.47548C32.1002 1.23323 29.5455 0 26.8242 0C24.0474 0 21.5483 1.23323 19.7156 3.36336C18.8826 4.37236 18.2717 5.43744 17.7163 6.44646C17.272 7.34335 16.8278 8.24024 16.3835 9.0811L16.2169 9.41741C11.9406 17.8258 7.77539 26.3463 3.9434 34.7548L3.88786 34.8669C3.49911 35.7638 3.05482 36.7167 2.61054 37.7257C2.33285 38.3423 2.05517 39.0149 1.77749 39.7437C1.05553 41.818 0.833381 43.7799 1.11106 45.7979C1.72196 50.0022 4.49876 53.5337 8.33074 55.1032C9.77469 55.7196 11.2742 56 12.8292 56C13.2735 56 13.8288 55.944 14.2731 55.888C16.1058 55.6636 17.994 55.0472 19.8267 53.9821C22.1037 52.6925 24.2696 50.8429 26.7132 48.1522C29.1568 50.8429 31.3782 52.6925 33.5996 53.9821C35.4324 55.0472 37.3206 55.6636 39.1533 55.888C39.5976 55.944 40.1527 56 40.5974 56C42.1524 56 43.7074 55.7196 45.0955 55.1032C48.983 53.5337 51.7043 49.9458 52.3153 45.7979C52.7595 43.8359 52.5376 41.874 51.8156 39.7997ZM26.7687 42.7148C23.7698 38.9029 21.826 35.3153 21.1596 32.2883C20.8819 30.999 20.8264 29.8779 20.993 28.8689C21.104 27.972 21.4372 27.1872 21.8815 26.5145C22.9367 25.001 24.7139 24.048 26.7687 24.048C28.8235 24.048 30.6563 24.9449 31.6559 26.5145C32.1002 27.1872 32.4334 27.972 32.5445 28.8689C32.7111 29.8779 32.6556 31.0551 32.3778 32.2883C31.7114 35.2593 29.7677 38.8469 26.7687 42.7148ZM48.9275 45.3495C48.5388 48.2642 46.595 50.7869 43.8738 51.9077C42.5411 52.4685 41.0971 52.6365 39.653 52.4685C38.2647 52.3001 36.8763 51.8517 35.4324 51.0109C33.4331 49.8898 31.4338 48.1522 29.1012 45.5735C32.7666 41.0332 34.988 36.8849 35.8211 33.1852C36.2099 31.4475 36.2654 29.8779 36.0988 28.4204C35.8766 27.019 35.3768 25.7297 34.5993 24.6086C32.8777 22.0861 29.9898 20.6286 26.7687 20.6286C23.5476 20.6286 20.6597 22.1421 18.9382 24.6086C18.1606 25.7297 17.6608 27.019 17.4387 28.4204C17.2165 29.8779 17.272 31.5035 17.7163 33.1852C18.5494 36.8849 20.8264 41.0892 24.4362 45.6295C22.1592 48.2082 20.1044 49.9458 18.1051 51.0669C16.6611 51.9077 15.2727 52.3565 13.8843 52.5245C12.3849 52.6925 10.9409 52.4685 9.66362 51.9641C6.94234 50.8429 4.99859 48.3202 4.60983 45.4055C4.44322 44.0039 4.5543 42.6028 5.10967 41.0332C5.27626 40.4724 5.55394 39.9121 5.83161 39.2393C6.2204 38.3423 6.66466 37.3894 7.10897 36.4364L7.16449 36.3243C10.9965 27.972 15.1061 19.4514 19.3824 11.1552L19.5491 10.8188C19.9933 9.97799 20.4376 9.0811 20.8819 8.24024C21.3262 7.34335 21.826 6.50249 22.4369 5.77376C23.6032 4.42843 25.1582 3.6997 26.8798 3.6997C28.6014 3.6997 30.1564 4.42843 31.3227 5.77376C31.9336 6.50249 32.4334 7.34335 32.8777 8.24024C33.322 9.0811 33.7663 9.97799 34.2106 10.8188L34.3771 11.1552C38.5979 19.5075 42.7075 28.028 46.5396 36.3804V36.4364C46.9838 37.3333 47.3725 38.3423 47.8168 39.2393C48.0946 39.9121 48.3723 40.4724 48.5388 41.0332C48.983 42.4904 49.1498 43.8919 48.9275 45.3495Z" fill="#B4B2C9"/>
</svg>
