<svg width="185" height="55" viewBox="0 0 185 55" fill="none" xmlns="http://www.w3.org/2000/svg">
<path fill-rule="evenodd" clip-rule="evenodd" d="M114.733 43.0115C103.985 50.8292 88.4083 55 74.9966 55C56.1909 55 39.261 48.1361 26.4532 36.7196C25.4469 35.8219 26.3485 34.5984 27.5561 35.2975C41.3785 43.2342 58.4693 48.0089 76.1236 48.0089C88.0298 48.0089 101.128 45.5778 113.171 40.5331C114.99 39.7703 116.512 41.7087 114.733 43.0115Z" fill="#B4B2C9"/>
<path fill-rule="evenodd" clip-rule="evenodd" d="M119.201 37.9669C117.832 36.235 110.12 37.1486 106.658 37.5538C105.604 37.6809 105.443 36.7753 106.393 36.1238C112.535 31.8576 122.614 33.089 123.789 34.519C124.965 35.957 123.484 45.9273 117.711 50.6859C116.826 51.417 115.981 51.0278 116.375 50.0584C117.671 46.865 120.577 39.7069 119.201 37.9669Z" fill="#B4B2C9"/>
<path fill-rule="evenodd" clip-rule="evenodd" d="M106.9 6.00611V1.85906C106.9 1.23144 107.383 0.810383 107.963 0.810383H126.776C127.38 0.810383 127.863 1.23939 127.863 1.85906V5.41028C127.855 6.00611 127.347 6.78467 126.446 8.01606L116.697 21.7522C120.32 21.6648 124.143 22.197 127.428 24.0243C128.169 24.4374 128.37 25.0412 128.426 25.637V30.0621C128.426 30.6659 127.75 31.373 127.042 31.0076C121.254 28.0125 113.565 27.6867 107.165 31.0393C106.513 31.3889 105.829 30.6897 105.829 30.086V25.8833C105.829 25.208 105.837 24.0561 106.521 23.0312L117.816 7.04684H107.987C107.383 7.04684 106.9 6.62578 106.9 6.00611Z" fill="#B4B2C9"/>
<path fill-rule="evenodd" clip-rule="evenodd" d="M38.2711 31.8814H32.5473C31.9999 31.8417 31.5652 31.4366 31.5249 30.9201V1.93056C31.5249 1.35062 32.016 0.889827 32.6278 0.889827H37.9651C38.5206 0.913645 38.9634 1.33472 39.0036 1.85906V5.64861H39.1081C40.501 1.98617 43.1174 0.278099 46.6432 0.278099C50.2259 0.278099 52.4637 1.98617 54.0738 5.64861C55.4586 1.98617 58.6063 0.278099 61.9792 0.278099C64.378 0.278099 67.0025 1.25528 68.6044 3.44797C70.4157 5.88695 70.0457 9.43021 70.0457 12.5365L70.0376 30.8327C70.0376 31.4127 69.5464 31.8814 68.9345 31.8814H63.2189C62.6472 31.8417 62.1886 31.3889 62.1886 30.8327V15.468C62.1886 14.2446 62.3012 11.1939 62.0276 10.034C61.6007 8.08756 60.3208 7.53939 58.6624 7.53939C57.278 7.53939 55.8286 8.453 55.2411 9.91482C54.6535 11.3766 54.7097 13.8235 54.7097 15.468V30.8327C54.7097 31.4127 54.2185 31.8814 53.607 31.8814H47.891C47.3116 31.8417 46.8607 31.3889 46.8607 30.8327L46.8526 15.468C46.8526 12.2346 47.3921 7.47584 43.3267 7.47584C39.213 7.47584 39.374 12.1154 39.374 15.468V30.8327C39.374 31.4127 38.8829 31.8814 38.2711 31.8814Z" fill="#B4B2C9"/>
<path fill-rule="evenodd" clip-rule="evenodd" d="M144.06 0.278099C152.553 0.278099 157.15 7.47584 157.15 16.628C157.15 25.4702 152.07 32.4852 144.06 32.4852C135.72 32.4852 131.179 25.2875 131.179 16.3181C131.179 7.29312 135.776 0.278099 144.06 0.278099ZM144.108 6.19678C139.89 6.19678 139.624 11.8692 139.624 15.4045C139.624 18.9477 139.568 26.5109 144.06 26.5109C148.496 26.5109 148.705 20.4095 148.705 16.6915C148.705 14.2446 148.6 11.321 147.852 9.00117C147.208 6.98328 145.927 6.19678 144.108 6.19678Z" fill="#B4B2C9"/>
<path fill-rule="evenodd" clip-rule="evenodd" d="M168.163 31.8814H162.463C161.891 31.8417 161.433 31.3889 161.433 30.8327L161.425 1.83523C161.473 1.30294 161.948 0.889827 162.528 0.889827H167.833C168.332 0.913645 168.742 1.24734 168.855 1.70017V6.13323H168.96C170.562 2.1689 172.807 0.278099 176.76 0.278099C179.329 0.278099 181.832 1.19172 183.442 3.69425C184.939 6.01406 184.939 9.91482 184.939 12.7192V30.9678C184.875 31.4763 184.4 31.8814 183.837 31.8814H178.097C177.573 31.8417 177.139 31.4604 177.082 30.9678V15.2217C177.082 12.0519 177.453 7.41228 173.5 7.41228C172.107 7.41228 170.827 8.33384 170.191 9.7321C169.386 11.5037 169.282 13.2674 169.282 15.2217V30.8327C169.274 31.4127 168.775 31.8814 168.163 31.8814Z" fill="#B4B2C9"/>
<path fill-rule="evenodd" clip-rule="evenodd" d="M91.9021 18.0341C91.9021 20.2347 91.9586 22.0699 90.8315 24.0243C89.922 25.6132 88.4726 26.5904 86.8707 26.5904C84.6731 26.5904 83.3851 24.9379 83.3851 22.4989C83.3851 17.6846 87.7562 16.8107 91.9021 16.8107V18.0341ZM97.6742 31.802C97.2961 32.1357 96.7484 32.1595 96.3219 31.937C94.422 30.3799 94.0756 29.657 93.0372 28.1713C89.8976 31.3333 87.6676 32.2787 83.6022 32.2787C78.7802 32.2787 75.0369 29.3471 75.0369 23.4761C75.0369 18.8921 77.5487 15.7699 81.1388 14.2446C84.2462 12.894 88.5856 12.6557 91.9021 12.2823V11.5514C91.9021 10.2088 92.0069 8.61984 91.2019 7.45995C90.5095 6.41922 89.1731 5.99022 87.9896 5.99022C85.8083 5.99022 83.8681 7.0945 83.3932 9.38254C83.2965 9.89099 82.9179 10.3915 82.3947 10.4153L76.8482 9.82743C76.3814 9.72415 75.8581 9.35076 75.9948 8.64367C77.2669 2.00206 83.353 3.8147e-05 88.7946 3.8147e-05C91.58 3.8147e-05 95.2189 0.730938 97.4168 2.8124C100.202 5.37846 99.9364 8.80256 99.9364 12.5285V21.3311C99.9364 23.9766 101.047 25.1365 102.094 26.5665C102.456 27.075 102.536 27.6867 102.07 28.0681C100.902 29.0293 98.8252 30.8168 97.6823 31.8179L97.6742 31.802" fill="#B4B2C9"/>
<path fill-rule="evenodd" clip-rule="evenodd" d="M16.8654 18.0343C16.8654 20.2349 16.9217 22.0701 15.7947 24.0245C14.885 25.6134 13.444 26.5905 11.8339 26.5905C9.63618 26.5905 8.35619 24.9381 8.35619 22.4991C8.35619 17.6847 12.7275 16.8108 16.8654 16.8108V18.0343ZM22.6374 31.8022C22.2591 32.1358 21.7116 32.1597 21.285 31.9372C19.3851 30.3801 19.047 29.6571 18.0005 28.1715C14.8608 31.3334 12.6389 32.2788 8.5655 32.2788C3.75143 32.2788 0 29.3473 0 23.4763C0 18.8923 2.51974 15.7701 6.10214 14.2448C9.20952 12.8942 13.5487 12.6559 16.8654 12.2825V11.5515C16.8654 10.2089 16.97 8.62001 16.173 7.46012C15.4727 6.4194 14.1363 5.9904 12.961 5.9904C10.7793 5.9904 8.83116 7.09468 8.35619 9.38271C8.25959 9.89116 7.88123 10.3917 7.36602 10.4155L1.81132 9.8276C1.3444 9.72433 0.829179 9.35094 0.957983 8.64388C2.23798 2.00224 8.31594 0.000217438 13.758 0.000217438C16.5433 0.000217438 20.1821 0.731115 22.3798 2.81258C25.1652 5.37868 24.8995 8.80277 24.8995 12.5288V21.3313C24.8995 23.9768 26.0105 25.1367 27.057 26.5667C27.4273 27.0751 27.5078 27.6869 27.0409 28.0682C25.8736 29.0295 23.7966 30.8171 22.6535 31.8181L22.6374 31.8021" fill="#B4B2C9"/>
</svg>
