<svg width="243" height="56" viewBox="0 0 243 56" fill="none" xmlns="http://www.w3.org/2000/svg">
<path d="M127.98 33.8333C121.848 33.8333 116.988 38.6167 116.988 44.9167C116.988 51.2167 121.963 56 127.98 56C134.113 56 138.973 51.1 138.973 44.9167C138.973 38.6167 134.113 33.8333 127.98 33.8333ZM127.98 38.2667C131.683 38.2667 134.46 41.0667 134.46 44.9167C134.46 48.7667 131.568 51.5667 127.98 51.5667C124.278 51.5667 121.5 48.7667 121.5 44.9167C121.385 41.0667 124.278 38.2667 127.98 38.2667Z" fill="#B4B2C9"/>
<path d="M219.51 48.8833V38.7333H224.717V34.3H219.51V28.35L214.997 29.75V34.3H211.179V38.7333H214.997V48.8833C214.997 54.3667 217.774 56.35 224.717 55.4167V51.3333C221.246 51.5667 219.51 51.5667 219.51 48.8833Z" fill="#B4B2C9"/>
<path d="M242.885 51.2167H232.586L242.885 38.7333V34.5333H226.916V38.7333H237.215L226.916 51.2167V55.5333H242.885V51.2167Z" fill="#B4B2C9"/>
<path d="M62.7171 1.4L67.3457 0V29.5167H62.7171V27.8833C60.6343 29.4 57.9728 30.2167 55.08 29.9833C49.9885 29.5167 45.7071 25.3167 45.2443 20.0667C45.2443 19.6 45.1285 19.25 45.1285 18.7833C45.1285 18.4333 45.1285 18.0833 45.2443 17.7333C45.2443 17.6167 45.2443 17.6167 45.2443 17.5V17.3833V17.2667C45.2443 17.0333 45.36 16.8 45.36 16.5667C45.36 16.45 45.36 16.3333 45.4757 16.3333V16.2167V16.1C45.4757 15.8667 45.5914 15.75 45.5914 15.5167C45.5914 15.4 45.7071 15.2833 45.7071 15.1667V15.05C45.8228 14.8167 45.8228 14.7 45.9385 14.4667C45.9385 14.35 46.0543 14.2333 46.0543 14.1167C46.0543 14.1167 46.0543 14.1167 46.0543 14C46.17 13.7667 46.2857 13.65 46.2857 13.4167C46.4014 13.3 46.4014 13.1833 46.5171 13.0667C46.6328 12.95 46.7485 12.7167 46.8643 12.6C46.98 12.4833 47.0957 12.3667 47.2114 12.25C47.3271 12.1333 47.4428 11.9 47.5585 11.7833C47.6743 11.6667 47.79 11.55 47.9057 11.4333C48.0214 11.3167 48.1371 11.2 48.3685 10.9667C48.4843 10.85 48.6 10.7333 48.7157 10.6167C48.8314 10.5 49.0628 10.3833 49.1785 10.2667C49.6414 10.0333 49.7571 9.91667 49.8728 9.8C49.9885 9.68333 50.22 9.56667 50.3357 9.45H50.4514C50.5671 9.33333 50.6828 9.33333 50.7985 9.21667C51.03 9.1 51.1457 8.98333 51.3771 8.98333H51.4928C51.6085 8.98333 51.7243 8.86667 51.84 8.86667C52.0714 8.75 52.1871 8.75 52.4185 8.63333H52.5343C52.65 8.63333 52.7657 8.51667 52.8814 8.51667C53.1128 8.4 53.2285 8.4 53.46 8.4H53.5757H53.6914C53.8071 8.4 53.9228 8.4 54.0385 8.28333C54.27 8.28333 54.5014 8.16667 54.7328 8.16667H54.8485C54.9643 8.16667 54.9643 8.16667 55.08 8.16667C55.4271 8.16667 55.89 8.05 56.2371 8.05C58.6671 8.05 60.8657 8.86667 62.7171 10.15V1.4ZM54.8485 25.3167C59.0143 26.25 62.7171 22.9833 62.7171 19.0167V18.9C62.7171 15.2833 59.8243 12.3667 56.2371 12.3667C56.0057 12.3667 55.7743 12.3667 55.5428 12.3667H55.4271C55.4271 12.3667 55.4271 12.3667 55.3114 12.3667C55.1957 12.3667 54.9643 12.3667 54.8485 12.4833H54.7328C54.6171 12.4833 54.5014 12.6 54.3857 12.6C54.27 12.6 54.1543 12.7167 54.1543 12.7167C54.0385 12.7167 53.9228 12.8333 53.8071 12.8333C53.6914 12.8333 53.6914 12.95 53.5757 12.95C53.46 13.0667 53.3443 13.0667 53.2285 13.1833C53.1128 13.1833 53.1128 13.3 52.9971 13.3C52.8814 13.4167 52.7657 13.4167 52.65 13.5333C52.65 13.5333 52.65 13.5333 52.5343 13.5333L52.4185 13.65C52.3028 13.7667 52.1871 13.8833 52.0714 14C52.0714 14 52.0714 14 51.9557 14.1167C51.84 14.2333 51.6085 14.4667 51.4928 14.5833C51.3771 14.7 51.2614 14.9333 51.1457 15.05C51.1457 15.05 51.1457 15.1667 51.03 15.1667C51.03 15.1667 51.03 15.1667 51.03 15.2833C50.9143 15.4 50.9143 15.5167 50.7985 15.6333C50.7985 15.75 50.6828 15.75 50.6828 15.8667C50.5671 15.9833 50.5671 16.1 50.5671 16.2167C50.5671 16.3333 50.4514 16.3333 50.4514 16.45C50.4514 16.5667 50.3357 16.6833 50.3357 16.8C50.3357 16.9167 50.3357 17.0333 50.22 17.0333C50.22 17.15 50.22 17.2667 50.1043 17.5C50.1043 17.6167 50.1043 17.7333 50.1043 17.7333C50.1043 17.85 50.1043 18.0833 50.1043 18.2V18.3167C50.1043 18.4333 50.1043 18.4333 50.1043 18.55C50.1043 19.0167 50.1043 19.4833 50.22 20.0667C50.4514 22.8667 52.4185 24.85 54.8485 25.3167Z" fill="#B4B2C9"/>
<path d="M17.9359 8.51667V9.91667C16.2001 8.63333 13.8859 7.81667 11.5716 7.81667C5.09157 7.81667 -0.115569 13.5333 0.578716 20.1833C1.15729 25.3167 5.32299 29.5167 10.4144 30.1C13.3073 30.3333 15.9687 29.5167 18.0516 28V29.6333H22.6801V8.51667H17.9359ZM17.9359 19.0167C17.9359 23.1 14.233 26.25 10.0673 25.3167C7.63728 24.85 5.67014 22.8667 5.09157 20.3C4.28157 16.1 7.52157 12.3667 11.5716 12.3667C15.043 12.3667 17.9359 15.2833 17.9359 19.0167Z" fill="#B4B2C9"/>
<path d="M151.701 34.0667V38.9667C148.693 38.7333 145.221 40.1333 145.221 44.9167V55.5333H140.709V34.4167H145.221V37.9167C146.494 35.1167 149.04 34.0667 151.701 34.0667Z" fill="#B4B2C9"/>
<path d="M162.579 33.8333C156.446 33.8333 151.586 38.6167 151.586 44.9167C151.586 51.2167 156.561 56 162.579 56C168.711 56 173.571 51.1 173.571 44.9167C173.687 38.6167 168.827 33.8333 162.579 33.8333ZM162.579 38.2667C166.281 38.2667 169.059 41.0667 169.059 44.9167C169.059 48.7667 166.166 51.5667 162.579 51.5667C158.876 51.5667 156.099 48.7667 156.099 44.9167C156.099 41.0667 158.991 38.2667 162.579 38.2667Z" fill="#B4B2C9"/>
<path d="M203.426 34.4167L196.83 55.5333H192.433L188.036 41.3L183.639 55.5333H179.241L172.646 34.4167H177.39L181.44 49L185.837 34.4167H190.119L194.516 49L198.566 34.4167H203.426Z" fill="#B4B2C9"/>
<path d="M209.443 34.4167H204.93V55.5333H209.443V34.4167Z" fill="#B4B2C9"/>
<path d="M80.0743 8.16667V13.0667C77.0657 12.8333 73.5943 14.2333 73.5943 19.0167V29.6333H69.0814V8.51667H73.5943V12.0167C74.8671 9.21667 77.4128 8.16667 80.0743 8.16667Z" fill="#B4B2C9"/>
<path fill-rule="evenodd" clip-rule="evenodd" d="M100.787 37.1V25.55L97.0839 23.45C96.8524 23.8 96.621 24.15 96.2739 24.3833C95.1167 25.3167 93.6124 26.0167 91.6453 26.0167C88.2896 26.0167 85.6282 24.2667 84.9339 21H101.712C101.712 20.7083 101.741 20.3875 101.77 20.0667C101.799 19.7458 101.828 19.425 101.828 19.1333C101.828 13.0667 97.5467 8.05 91.2982 8.05C84.8182 8.05 80.3053 12.8333 80.3053 19.1333C80.3053 25.4333 84.7024 30.2167 91.6453 30.2167C93.381 30.2167 94.8853 29.8667 96.2739 29.2833V55.5333H100.787V44.2167C100.787 39.9 103.101 38.15 106.11 38.15C108.887 38.15 110.738 39.9 110.738 43.05V55.5333H115.251V42.4667C115.251 36.9833 111.895 33.8333 107.267 33.8333C104.374 33.8333 102.175 34.8833 100.787 37.1ZM97.1996 17.2667C96.5053 13.65 93.9596 12.1333 91.1824 12.1333C87.8267 12.1333 85.5124 14.1167 84.9339 17.2667H97.1996Z" fill="#B4B2C9"/>
<path d="M119.533 23.3333C118.491 24.85 116.64 25.9 114.094 25.9C110.739 25.9 108.077 24.2667 107.383 20.8833H124.046C124.161 20.3 124.161 19.6 124.161 19.0167C124.161 12.95 119.88 7.93333 113.631 7.93333C107.036 7.93333 102.639 12.8333 102.639 19.0167C102.639 25.3167 107.151 30.1 113.979 30.1C118.029 30.1 121.269 28.35 123.12 25.55L119.533 23.3333ZM113.747 12.1333C116.524 12.1333 119.07 13.65 119.764 17.2667H107.383C108.077 14.1167 110.391 12.1333 113.747 12.1333Z" fill="#B4B2C9"/>
<path d="M171.257 26.0167C173.803 26.0167 175.654 24.85 176.696 23.45L180.399 25.6667C178.431 28.5833 175.307 30.2167 171.257 30.2167C164.314 30.2167 159.917 25.4333 159.917 19.1333C159.917 12.8333 164.43 8.05 170.91 8.05C177.159 8.05 181.44 13.0667 181.44 19.1333C181.44 19.7167 181.324 20.4167 181.324 21H164.661C165.24 24.2667 167.901 26.0167 171.257 26.0167ZM176.811 17.2667C176.233 13.65 173.571 12.1333 170.794 12.1333C167.439 12.1333 165.124 14.1167 164.43 17.2667H176.811Z" fill="#B4B2C9"/>
<path d="M204.93 29.6333H209.443V25.55H204.93V29.6333Z" fill="#B4B2C9"/>
<path d="M35.4089 7.93333C32.516 7.93333 30.3174 8.98333 28.9289 11.2V8.75V8.4H24.416V10.15V29.5167H28.9289V18.2C28.9289 13.8833 31.2432 12.1333 34.2517 12.1333C37.1446 12.1333 38.8804 13.7667 38.8804 17.0333V29.5167H43.3932V16.6833C43.5089 11.2 40.1532 7.93333 35.4089 7.93333Z" fill="#B4B2C9"/>
<path d="M188.151 29.6333H183.639V8.51667H188.151V11.2C189.54 8.98333 191.739 7.93333 194.631 7.93333C199.26 7.93333 202.616 11.0833 202.616 16.5667V29.5167H198.103V17.15C198.103 14 196.251 12.25 193.474 12.25C190.466 12.25 188.151 14 188.151 18.3167V29.6333Z" fill="#B4B2C9"/>
<path d="M130.179 14.35C130.179 12.8333 131.567 12.1333 133.187 12.1333C134.807 12.1333 136.196 12.8333 137.006 14.2333L140.94 12.25C139.436 9.56667 136.659 7.93333 133.187 7.93333C128.906 7.93333 125.55 10.3833 125.55 14.35C125.55 18.7833 129.369 19.8333 132.609 20.7667C134.923 21.4667 136.774 21.9333 136.774 23.5667C136.774 25.2 135.27 25.9 133.187 25.9C131.22 25.9 129.6 25.0833 128.79 23.5667L124.74 25.55C126.129 28.35 129.137 30.1 133.071 30.1C137.584 30.1 141.287 27.7667 141.287 23.5667C141.287 19.0167 137.353 17.85 134.229 17.0333C132.146 16.45 130.179 15.8667 130.179 14.35Z" fill="#B4B2C9"/>
<path d="M150.66 12.1333C149.04 12.1333 147.651 12.8333 147.651 14.35C147.651 15.9833 149.619 16.45 151.817 17.15C155.057 18.0833 158.876 19.1333 158.876 23.6833C158.876 27.8833 155.289 30.2167 150.66 30.2167C146.61 30.2167 143.717 28.4667 142.329 25.6667L146.379 23.6833C147.189 25.2 148.693 26.0167 150.776 26.0167C152.743 26.0167 154.363 25.3167 154.363 23.6833C154.363 22.1667 152.396 21.5833 150.197 20.8833C146.957 19.95 143.139 18.9 143.139 14.4667C143.139 10.5 146.494 8.05 150.776 8.05C154.131 8.05 157.024 9.68333 158.529 12.3667L154.594 14.35C153.669 12.8333 152.28 12.1333 150.66 12.1333Z" fill="#B4B2C9"/>
</svg>
