<svg width="115" height="29" viewBox="0 0 115 29" fill="none" xmlns="http://www.w3.org/2000/svg">
<path d="M20.4854 18.2093C19.8025 20.4573 17.754 22.4806 14.1121 22.4806C10.015 22.4806 6.60084 19.1085 6.60084 14.3876C6.60084 9.66667 10.015 6.29457 14.1121 6.29457C17.5263 6.29457 19.5749 8.31784 20.2578 10.5659L27.0861 10.1162C25.7205 4.72094 20.9405 0 14.1121 0C6.37323 0 0 6.29457 0 14.3876C0 22.4806 6.37323 28.7753 14.1121 28.7753C21.1681 28.7753 25.9481 24.0543 27.3137 18.6589L20.4854 18.2093Z" fill="#020113"/>
<path d="M28.6783 18.2094C28.6783 24.2792 33.4581 29.0001 39.3762 29.0001C45.2942 29.0001 50.074 24.2792 50.074 18.2094C50.074 12.1397 45.2942 7.41871 39.3762 7.41871C33.4581 7.41871 28.6783 12.1397 28.6783 18.2094ZM43.9284 18.2094C43.9284 21.3566 41.8799 23.38 39.3762 23.38C36.8725 23.38 34.824 21.3566 34.824 18.2094C34.824 15.0621 36.8725 13.0388 39.3762 13.0388C41.8799 13.0388 43.9284 15.0621 43.9284 18.2094ZM33.4581 5.17064H45.5218V0.449707H33.4581V5.17064Z" fill="#020113"/>
<path d="M52.0011 28.5503H71.576V22.2557H58.6019V0.224609H52.0011V28.5503Z" fill="#020113"/>
<path d="M87.0534 28.5503H91.6064V15.9611C91.6064 11.0153 87.9645 7.41846 82.9563 7.41846C77.494 7.41846 74.535 10.3409 73.8521 14.3875L79.9977 14.8371C79.9977 14.8371 80.453 12.8138 82.7287 12.8138C84.3225 12.8138 85.4604 13.9378 85.4604 15.9611C75.9006 15.9611 72.9418 18.8836 72.9418 22.9302C72.9418 26.3022 75.4454 28.7751 79.9977 28.7751C83.6398 28.7751 86.1431 26.527 86.1431 26.527L87.0534 28.5503ZM85.4604 20.4571C85.4604 22.7052 83.8674 24.2789 81.5909 24.2789C79.9977 24.2789 79.0874 23.3797 79.0874 22.2557C79.0874 20.6821 80.2252 19.558 85.4604 19.558V20.4571Z" fill="#020113"/>
<path d="M93.8319 28.5503H98.3841L99.2944 26.527C99.2944 26.527 101.571 28.7751 105.213 28.7751C110.448 28.7751 115 24.2789 115 18.2091C115 12.1394 110.448 7.64321 105.213 7.64321C102.026 7.64321 99.9771 9.44163 99.9771 9.44163V0.224609H93.8319V28.5503ZM104.302 23.1549C101.798 23.1549 99.7495 21.1316 99.7495 18.2091C99.7495 15.2866 101.798 13.2633 104.302 13.2633C106.806 13.2633 108.855 15.2866 108.855 18.2091C108.855 21.1316 106.806 23.1549 104.302 23.1549Z" fill="#020113"/>
</svg>
