<svg width="115" height="29" viewBox="0 0 115 29" fill="none" xmlns="http://www.w3.org/2000/svg">
<path d="M20.4854 18.2093C19.8025 20.4573 17.754 22.4806 14.1121 22.4806C10.015 22.4806 6.60084 19.1085 6.60084 14.3876C6.60084 9.66667 10.015 6.29457 14.1121 6.29457C17.5263 6.29457 19.5749 8.31784 20.2578 10.5659L27.0861 10.1162C25.7205 4.72094 20.9405 0 14.1121 0C6.37323 0 0 6.29457 0 14.3876C0 22.4806 6.37323 28.7753 14.1121 28.7753C21.1681 28.7753 25.9481 24.0543 27.3137 18.6589L20.4854 18.2093Z" fill="#1A7BFF"/>
<path d="M28.6783 18.2093C28.6783 24.279 33.4581 29 39.3762 29C45.2942 29 50.074 24.279 50.074 18.2093C50.074 12.1395 45.2942 7.41858 39.3762 7.41858C33.4581 7.41858 28.6783 12.1395 28.6783 18.2093ZM43.9284 18.2093C43.9284 21.3565 41.8799 23.3798 39.3762 23.3798C36.8725 23.3798 34.824 21.3565 34.824 18.2093C34.824 15.062 36.8725 13.0387 39.3762 13.0387C41.8799 13.0387 43.9284 15.062 43.9284 18.2093ZM33.4581 5.17052H45.5218V0.449585H33.4581V5.17052Z" fill="#1A7BFF"/>
<path d="M52.0011 28.5505H71.576V22.2559H58.6019V0.224792H52.0011V28.5505Z" fill="#1A7BFF"/>
<path d="M87.0534 28.5505H91.6064V15.9613C91.6064 11.0155 87.9645 7.41864 82.9563 7.41864C77.494 7.41864 74.535 10.3411 73.8521 14.3877L79.9977 14.8372C79.9977 14.8372 80.453 12.814 82.7287 12.814C84.3225 12.814 85.4604 13.938 85.4604 15.9613C75.9006 15.9613 72.9418 18.8838 72.9418 22.9303C72.9418 26.3024 75.4454 28.7752 79.9977 28.7752C83.6398 28.7752 86.1431 26.5271 86.1431 26.5271L87.0534 28.5505ZM85.4604 20.4573C85.4604 22.7054 83.8674 24.279 81.5909 24.279C79.9977 24.279 79.0874 23.3798 79.0874 22.2559C79.0874 20.6822 80.2252 19.5582 85.4604 19.5582V20.4573Z" fill="#1A7BFF"/>
<path d="M93.8319 28.5505H98.3841L99.2944 26.5271C99.2944 26.5271 101.571 28.7753 105.213 28.7753C110.448 28.7753 115 24.279 115 18.2093C115 12.1395 110.448 7.64339 105.213 7.64339C102.026 7.64339 99.9771 9.44182 99.9771 9.44182V0.224792H93.8319V28.5505ZM104.302 23.1551C101.798 23.1551 99.7495 21.1317 99.7495 18.2093C99.7495 15.2868 101.798 13.2635 104.302 13.2635C106.806 13.2635 108.855 15.2868 108.855 18.2093C108.855 21.1317 106.806 23.1551 104.302 23.1551Z" fill="#1A7BFF"/>
</svg>
