<svg width="24" height="25" viewBox="0 0 24 25" fill="none" xmlns="http://www.w3.org/2000/svg">
<path d="M12.0003 0C5.37354 0 0 5.37292 0 12.0003C0 16.9142 2.95477 21.1351 7.18308 22.9911C7.14923 22.1532 7.17662 21.1468 7.392 20.2363C7.62277 19.2615 8.936 13.6972 8.936 13.6972C8.936 13.6972 8.55262 12.9311 8.55262 11.7988C8.55262 10.0206 9.58339 8.69169 10.8665 8.69169C11.9578 8.69169 12.4852 9.51138 12.4852 10.4932C12.4852 11.5905 11.7858 13.2305 11.4258 14.7517C11.1249 16.0252 12.0643 17.0631 13.32 17.0631C15.5935 17.0631 17.1246 14.1431 17.1246 10.6828C17.1246 8.05354 15.3535 6.08492 12.1317 6.08492C8.49139 6.08492 6.22369 8.79939 6.22369 11.8314C6.22369 12.8775 6.532 13.6145 7.01508 14.1846C7.23692 14.4471 7.26769 14.5526 7.18739 14.8542C7.12985 15.0748 6.99754 15.6062 6.94308 15.8169C6.86338 16.1209 6.61723 16.2292 6.34215 16.1172C4.66554 15.4326 3.88462 13.5966 3.88462 11.5326C3.88462 8.12338 6.75939 4.03631 12.4609 4.03631C17.0428 4.03631 20.0582 7.35169 20.0582 10.9114C20.0582 15.6182 17.4409 19.1351 13.5831 19.1351C12.288 19.1351 11.0692 18.4345 10.6517 17.6394C10.6517 17.6394 9.95508 20.4037 9.80769 20.9385C9.55323 21.8637 9.05508 22.7886 8.59969 23.5089C9.70383 23.8354 10.8492 24.0012 12.0006 24.0012C18.6271 24.0006 24 18.6274 24 12.0003C24 5.37292 18.6271 0 12.0003 0Z" fill="#020113"/>
</svg>
