<svg width="110" height="110" viewBox="0 0 110 110" fill="none" xmlns="http://www.w3.org/2000/svg">
<circle cx="55" cy="55" r="55" fill="#1A7BFF"/>
<path d="M55.9998 30C49.5953 30 43.1908 32.4377 38.3135 37.315C29.2089 46.4217 28.6047 60.8558 36.503 70.6709C36.0651 69.4974 35.9735 68.2229 36.239 66.9988C36.5046 65.7748 37.1162 64.6528 38.001 63.7664C38.9859 62.7828 40.259 62.1393 41.635 61.9295C43.011 61.7196 44.4181 61.9544 45.6514 62.5996C43.7447 59.9905 42.8919 56.7583 43.2633 53.5481C43.6347 50.3379 45.2029 47.3858 47.6549 45.2808C50.107 43.1759 53.2626 42.073 56.492 42.1922C59.7214 42.3113 62.7871 43.6438 65.0774 45.9238C66.219 47.0654 67.7673 47.7067 69.3818 47.7067C70.9962 47.7067 72.5446 47.0654 73.6862 45.9238C74.8278 44.7822 75.4691 43.2338 75.4691 41.6194C75.4691 40.0049 74.8278 38.4566 73.6862 37.315C71.3652 34.9909 68.608 33.1483 65.5728 31.893C62.5376 30.6377 59.2844 29.9944 55.9998 30ZM75.5008 39.3359C75.9381 40.5093 76.0291 41.7836 75.7632 43.0072C75.4973 44.2308 74.8856 45.3523 74.0008 46.2384C73.0158 47.2219 71.7427 47.8654 70.3667 48.0753C68.9907 48.2851 67.5837 48.0503 66.3504 47.4051C68.1641 49.8783 69.033 52.919 68.7999 55.9771C68.5668 59.0353 67.2471 61.9091 65.0795 64.0789C63.9379 65.2202 63.2964 66.7683 63.2962 68.3825C63.2961 69.1818 63.4535 69.9733 63.7593 70.7118C64.0651 71.4503 64.5133 72.1213 65.0784 72.6866C65.6436 73.2519 66.3145 73.7003 67.0529 74.0063C67.7913 74.3122 68.5828 74.4698 69.3821 74.4698C70.9963 74.47 72.5446 73.829 73.6862 72.6876C82.7908 63.583 83.395 49.1489 75.4988 39.3359H75.5008ZM42.6158 62.2955C41.8162 62.2949 41.0243 62.452 40.2855 62.7577C39.5466 63.0635 38.8753 63.5119 38.3099 64.0773C37.7444 64.6427 37.296 65.3141 36.9903 66.0529C36.6845 66.7918 36.5275 67.5836 36.528 68.3833C36.5275 69.1829 36.6845 69.9748 36.9903 70.7136C37.296 71.4525 37.7444 72.1238 38.3099 72.6892C38.8753 73.2546 39.5466 73.703 40.2855 74.0088C41.0243 74.3145 41.8162 74.4716 42.6158 74.4711C43.4154 74.4716 44.2073 74.3145 44.9462 74.0088C45.685 73.703 46.3564 73.2546 46.9218 72.6892C47.4872 72.1238 47.9356 71.4525 48.2413 70.7136C48.5471 69.9748 48.7042 69.1829 48.7036 68.3833C48.7045 67.5836 48.5476 66.7917 48.2421 66.0527C47.9366 65.3138 47.4885 64.6423 46.9232 64.0767C46.358 63.5111 45.6868 63.0625 44.9481 62.7565C44.2093 62.4505 43.4175 62.2931 42.6179 62.2934L42.6158 62.2955ZM63.5961 65.3519C61.3924 66.9672 58.7311 67.8381 55.9988 67.8381C53.2665 67.8381 50.6052 66.9672 48.4015 65.3519C49.0461 66.5853 49.2805 67.9922 49.0707 69.3681C48.8609 70.7439 48.2178 72.017 47.2348 73.0022C46.3484 73.8872 45.2263 74.4987 44.0022 74.7639C42.778 75.0291 41.5035 74.9369 40.3303 74.4982C49.4474 81.8381 62.5502 81.8381 71.6652 74.4982C70.4923 74.9364 69.2182 75.0284 67.9945 74.7632C66.7708 74.498 65.649 73.8868 64.7628 73.0022C63.7793 72.0173 63.1357 70.7442 62.9259 69.3682C62.716 67.9922 62.9508 66.5852 63.5961 65.3519Z" fill="white"/>
</svg>
