<svg width="16" height="16" viewBox="0 0 16 16" fill="none" xmlns="http://www.w3.org/2000/svg">
<path d="M9.15994 6.69651L10.3424 5.51484C9.85631 5.08042 9.25346 4.79808 8.6085 4.70279C7.96354 4.6075 7.30479 4.70344 6.7138 4.97873C6.12281 5.25402 5.62553 5.69657 5.2835 6.25161C4.94147 6.80665 4.76972 7.44981 4.7895 8.10147C4.80928 8.75313 5.01973 9.38468 5.39479 9.91795C5.76986 10.4512 6.29307 10.8628 6.89967 11.1017C7.50627 11.3407 8.16962 11.3965 8.80761 11.2622C9.4456 11.128 10.0302 10.8096 10.4891 10.3465L9.39494 9.25235H9.21994C8.98168 9.46152 8.6887 9.5984 8.37538 9.64692C8.06206 9.69543 7.7414 9.65357 7.45103 9.52624C7.16067 9.39892 6.91265 9.19141 6.73607 8.92807C6.5595 8.66474 6.4617 8.3565 6.45416 8.03953C6.44661 7.72257 6.52963 7.41003 6.69348 7.13859C6.85732 6.86715 7.09519 6.64808 7.37917 6.50708C7.66315 6.36609 7.98145 6.30902 8.29673 6.34257C8.612 6.37612 8.91117 6.49891 9.15911 6.69651H9.15994Z" fill="black"/>
<path fill-rule="evenodd" clip-rule="evenodd" d="M8 0.5C8.98491 0.5 9.96018 0.693993 10.8701 1.0709C11.7801 1.44781 12.6069 2.00026 13.3033 2.6967C13.9997 3.39314 14.5522 4.21993 14.9291 5.12987C15.306 6.03982 15.5 7.01509 15.5 8C15.5 8.98491 15.306 9.96018 14.9291 10.8701C14.5522 11.7801 13.9997 12.6069 13.3033 13.3033C12.6069 13.9997 11.7801 14.5522 10.8701 14.9291C9.96018 15.306 8.98491 15.5 8 15.5C6.01088 15.5 4.10322 14.7098 2.6967 13.3033C1.29018 11.8968 0.5 9.98912 0.5 8C0.5 6.01088 1.29018 4.10322 2.6967 2.6967C4.10322 1.29018 6.01088 0.5 8 0.5ZM8 2.16667C8.76604 2.16667 9.52459 2.31755 10.2323 2.6107C10.9401 2.90386 11.5831 3.33354 12.1248 3.87521C12.6665 4.41689 13.0961 5.05995 13.3893 5.76768C13.6825 6.47541 13.8333 7.23396 13.8333 8C13.8333 8.76604 13.6825 9.52459 13.3893 10.2323C13.0961 10.9401 12.6665 11.5831 12.1248 12.1248C11.5831 12.6665 10.9401 13.0961 10.2323 13.3893C9.52459 13.6825 8.76604 13.8333 8 13.8333C6.4529 13.8333 4.96917 13.2188 3.87521 12.1248C2.78125 11.0308 2.16667 9.5471 2.16667 8C2.16667 6.4529 2.78125 4.96917 3.87521 3.87521C4.96917 2.78125 6.4529 2.16667 8 2.16667Z" fill="black"/>
</svg>
