<svg width="110" height="110" viewBox="0 0 110 110" fill="none" xmlns="http://www.w3.org/2000/svg">
<circle cx="55" cy="55" r="55" fill="#1A7BFF"/>
<path d="M74.3097 36.6234C73.7751 36.2776 73.1638 36.0683 72.5295 36.0141C71.8951 35.9599 71.2571 36.0623 70.6716 36.3124L51.4863 43.8684C51.0321 44.0533 50.5464 44.1483 50.056 44.1483H37.7736C36.7428 44.1483 35.7542 44.5578 35.0252 45.2867C34.2963 46.0156 33.8868 47.0042 33.8868 48.0351V48.346H30V57.6744H33.8868V58.0786C33.9112 59.0932 34.3314 60.058 35.0577 60.7669C35.784 61.4758 36.7587 61.8724 37.7736 61.8721L42.4378 71.7602C42.7536 72.4261 43.2509 72.9894 43.8724 73.3854C44.4939 73.7814 45.2145 73.9941 45.9515 73.999H47.9104C48.9359 73.9908 49.9166 73.5777 50.6388 72.8496C51.361 72.1216 51.7662 71.1377 51.7662 70.1122V62.2453L70.6716 69.8012C71.1367 69.9863 71.6326 70.0813 72.1331 70.0811C72.9095 70.0686 73.6657 69.8309 74.3097 69.397C74.8211 69.0517 75.243 68.5896 75.5404 68.0489C75.8378 67.5082 76.0021 66.9044 76.0199 66.2876V39.8261C76.0171 39.1934 75.8598 38.5709 75.5617 38.0128C75.2637 37.4547 74.8339 36.9777 74.3097 36.6234ZM47.8794 48.0351V58.0786H37.7736V48.0351H47.8794ZM47.8794 70.1122H45.9204L42.0958 61.8721H47.8794V70.1122ZM52.9167 58.545C52.5475 58.3564 52.1625 58.2003 51.7662 58.0786V47.8174C52.1587 47.7364 52.5436 47.622 52.9167 47.4754L72.1331 39.8261V66.1943L52.9167 58.545ZM76.1132 49.1234V56.897C77.144 56.897 78.1327 56.4875 78.8616 55.7586C79.5905 55.0297 80 54.041 80 53.0102C80 51.9794 79.5905 50.9907 78.8616 50.2618C78.1327 49.5329 77.144 49.1234 76.1132 49.1234Z" fill="white"/>
</svg>
