<svg width="88" height="88" viewBox="0 0 88 88" fill="none" xmlns="http://www.w3.org/2000/svg">
<circle cx="44" cy="44" r="44" fill="#1A7BFF"/>
<path d="M48.8681 66C49.2018 66 49.5268 65.8944 49.7964 65.6984C50.066 65.5024 50.2662 65.2262 50.3683 64.9094L52.1017 59.5383C52.8297 59.1831 53.5262 58.784 54.1912 58.3346L59.7255 59.5226C60.0518 59.592 60.3918 59.5564 60.6965 59.4209C61.0012 59.2853 61.2549 59.0568 61.4211 58.7683L65.7892 51.2286C65.956 50.9402 66.0267 50.6064 65.991 50.2754C65.9553 49.9444 65.8151 49.6333 65.5907 49.3869L61.7929 45.2069C61.8482 44.4053 61.8482 43.601 61.7929 42.7994L65.5907 38.6131C65.8151 38.3667 65.9553 38.0556 65.991 37.7246C66.0267 37.3936 65.956 37.0598 65.7892 36.7714L61.4211 29.2286C61.2545 28.9406 61.0006 28.7127 60.6959 28.5778C60.3912 28.4428 60.0514 28.4077 59.7255 28.4774L54.1912 29.6654C53.5294 29.2191 52.8297 28.8169 52.1049 28.4617L50.3683 23.0906C50.2662 22.7738 50.066 22.4976 49.7964 22.3016C49.5268 22.1056 49.2018 22 48.8681 22H40.1319C39.7982 22 39.4732 22.1056 39.2036 22.3016C38.934 22.4976 38.7338 22.7738 38.6317 23.0906L36.9014 28.4586C36.1754 28.8126 35.475 29.217 34.8056 29.6686L29.2745 28.4774C28.9482 28.408 28.6082 28.4436 28.3035 28.5791C27.9988 28.7147 27.7451 28.9432 27.5789 29.2317L23.2108 36.7714C23.044 37.0598 22.9733 37.3936 23.009 37.7246C23.0447 38.0556 23.1849 38.3667 23.4094 38.6131L27.2071 42.7994C27.152 43.5989 27.152 44.4011 27.2071 45.2006L23.4094 49.3869C23.1849 49.6333 23.0447 49.9444 23.009 50.2754C22.9733 50.6064 23.044 50.9402 23.2108 51.2286L27.5789 58.7714C27.7456 59.0594 27.9995 59.2873 28.3041 59.4222C28.6088 59.5572 28.9486 59.5923 29.2745 59.5226L34.8056 58.3314C35.4738 58.7809 36.1734 59.1863 36.9014 59.5414L38.6348 64.9094C38.7366 65.2251 38.9359 65.5007 39.2042 65.6966C39.4726 65.8924 39.7962 65.9987 40.1287 66H48.865H48.8681ZM47.7147 62.8571H41.2853L39.4952 57.3037L38.2882 56.716C37.6948 56.4264 37.1219 56.0967 36.5737 55.7291L35.458 54.9749L29.7347 56.2069L26.52 50.6503L30.4438 46.3194L30.3492 44.9869C30.3039 44.3297 30.3039 43.6703 30.3492 43.0131L30.4438 41.6806L26.5137 37.3497L29.7315 31.7931L35.4548 33.022L36.5705 32.2709C37.1188 31.9033 37.6916 31.5736 38.285 31.284L39.4921 30.6963L41.2853 25.1429H47.721L49.5174 30.6994L50.7213 31.284C51.314 31.5729 51.8859 31.9026 52.4326 32.2709L53.5452 33.022L59.2717 31.7931L62.4863 37.3497L58.5594 41.6806L58.6539 43.0131C58.6994 43.6713 58.6994 44.3318 58.6539 44.99L58.5594 46.3226L62.4895 50.6503L59.2717 56.2069L53.5452 54.9811L52.4326 55.7291C51.8859 56.0974 51.3141 56.4272 50.7213 56.716L49.5174 57.3006L47.7178 62.8571H47.7147ZM44.5 53.4286C47.0076 53.4286 49.4125 52.4352 51.1856 50.667C52.9587 48.8988 53.9549 46.5006 53.9549 44C53.9549 41.4994 52.9587 39.1012 51.1856 37.333C49.4125 35.5648 47.0076 34.5714 44.5 34.5714C41.9924 34.5714 39.5875 35.5648 37.8144 37.333C36.0413 39.1012 35.0451 41.4994 35.0451 44C35.0451 46.5006 36.0413 48.8988 37.8144 50.667C39.5875 52.4352 41.9924 53.4286 44.5 53.4286ZM44.5 50.2857C42.8283 50.2857 41.225 49.6235 40.0429 48.4447C38.8608 47.2659 38.1968 45.6671 38.1968 44C38.1968 42.3329 38.8608 40.7341 40.0429 39.5553C41.225 38.3765 42.8283 37.7143 44.5 37.7143C46.1717 37.7143 47.775 38.3765 48.9571 39.5553C50.1392 40.7341 50.8032 42.3329 50.8032 44C50.8032 45.6671 50.1392 47.2659 48.9571 48.4447C47.775 49.6235 46.1717 50.2857 44.5 50.2857Z" fill="white"/>
</svg>
