<svg width="88" height="88" viewBox="0 0 88 88" fill="none" xmlns="http://www.w3.org/2000/svg">
<circle cx="44" cy="44" r="44" fill="#1A7BFF"/>
<path d="M33.8421 25.1508C35.2103 22.7747 37.3379 20.9245 39.8848 19.8959C42.4317 18.8674 45.251 18.7199 47.8919 19.477C50.5328 20.2341 52.8429 21.8522 54.453 24.0725C56.063 26.2928 56.88 28.9872 56.7733 31.725C56.6667 34.4628 55.6426 37.0859 53.8647 39.175C52.0869 41.2641 49.6579 42.6987 46.966 43.2493C44.2741 43.8 41.4749 43.4349 39.0156 42.2125C36.5563 40.9901 34.5791 38.981 33.3999 36.5062C32.612 37.0808 31.6608 37.3898 30.6847 37.3882H29.149V38.1691C29.149 38.751 29.3701 39.2808 29.7326 39.6819C30.0423 39.3328 30.4513 39.0861 30.9052 38.9746C31.359 38.8631 31.8362 38.892 32.2731 39.0576C32.71 39.2233 33.086 39.5177 33.351 39.9016C33.6159 40.2856 33.7572 40.7409 33.7561 41.207C33.7559 41.5271 33.6886 41.8436 33.5585 42.1362C33.4284 42.4288 33.2384 42.6911 33.0007 42.9062C32.763 43.1213 32.4828 43.2845 32.1781 43.3853C31.8734 43.4861 31.551 43.5223 31.2314 43.4916C29.8481 43.4431 28.5377 42.8612 27.5762 41.8683C26.6148 40.8754 26.0775 39.5492 26.0776 38.1691V26.6789C26.0776 26.2728 26.2394 25.8834 26.5274 25.5962C26.8154 25.3091 27.206 25.1477 27.6133 25.1477H33.7561L33.8421 25.1508ZM35.2919 31.6155C35.3875 34.0187 36.4245 36.2886 38.1801 37.9379C39.9358 39.5871 42.27 40.4842 44.6817 40.4365C47.0933 40.3888 49.3901 39.4001 51.0787 37.6827C52.7673 35.9653 53.7132 33.6562 53.7132 31.2511C53.7132 28.8461 52.7673 26.5369 51.0787 24.8195C49.3901 23.1021 47.0933 22.1134 44.6817 22.0657C42.27 22.018 39.9358 22.9151 38.1801 24.5644C36.4245 26.2136 35.3875 28.4835 35.2919 30.8867V31.6155ZM32.2204 30.8285V28.2101H29.149V34.3258H30.6847C31.092 34.3258 31.4826 34.1645 31.7706 33.8773C32.0586 33.5901 32.2204 33.2007 32.2204 32.7946V31.6737C32.2109 31.3921 32.2109 31.1102 32.2204 30.8285ZM23 52.688C23 49.2795 25.7735 46.5632 29.1705 46.5632H59.8571C61.4863 46.5632 63.0488 47.2084 64.2008 48.3571C65.3528 49.5057 66 51.0636 66 52.688C66 57.8665 63.4415 61.7711 59.4425 64.3159C55.5049 66.8179 50.1975 68 44.5 68C38.8025 68 33.4951 66.8179 29.5575 64.3159C25.5585 61.7741 23 57.8634 23 52.688ZM29.1705 49.6256C27.4474 49.6256 26.0714 50.9945 26.0714 52.688C26.0714 56.6967 27.9819 59.6825 31.2099 61.7313C34.4964 63.8229 39.1711 64.9376 44.5 64.9376C49.8289 64.9376 54.5036 63.8229 57.7901 61.7313C61.0151 59.6794 62.9286 56.6997 62.9286 52.688C62.9286 51.8758 62.605 51.0968 62.029 50.5225C61.453 49.9482 60.6717 49.6256 59.8571 49.6256H29.1705Z" fill="white"/>
</svg>
