<svg width="88" height="88" viewBox="0 0 88 88" fill="none" xmlns="http://www.w3.org/2000/svg">
<circle cx="44" cy="44" r="44" fill="#1A7BFF"/>
<path d="M44.5 28.0769C43.6854 28.0769 42.9042 28.4011 42.3282 28.9781C41.7522 29.5552 41.4286 30.3378 41.4286 31.1538C41.4286 31.9699 41.7522 32.7525 42.3282 33.3296C42.9042 33.9066 43.6854 34.2308 44.5 34.2308C45.3146 34.2308 46.0958 33.9066 46.6718 33.3296C47.2478 32.7525 47.5714 31.9699 47.5714 31.1538C47.5714 30.3378 47.2478 29.5552 46.6718 28.9781C46.0958 28.4011 45.3146 28.0769 44.5 28.0769ZM38.3571 31.1538C38.3571 29.5217 39.0043 27.9565 40.1563 26.8024C41.3084 25.6483 42.8708 25 44.5 25C46.1292 25 47.6916 25.6483 48.8437 26.8024C49.9957 27.9565 50.6429 29.5217 50.6429 31.1538C50.6429 32.7859 49.9957 34.3512 48.8437 35.5053C47.6916 36.6593 46.1292 37.3077 44.5 37.3077C42.8708 37.3077 41.3084 36.6593 40.1563 35.5053C39.0043 34.3512 38.3571 32.7859 38.3571 31.1538ZM59.0893 29.6154C58.4783 29.6154 57.8924 29.8585 57.4604 30.2913C57.0284 30.7241 56.7857 31.311 56.7857 31.9231C56.7857 32.5351 57.0284 33.1221 57.4604 33.5549C57.8924 33.9876 58.4783 34.2308 59.0893 34.2308C59.7002 34.2308 60.2862 33.9876 60.7182 33.5549C61.1502 33.1221 61.3929 32.5351 61.3929 31.9231C61.3929 31.311 61.1502 30.7241 60.7182 30.2913C60.2862 29.8585 59.7002 29.6154 59.0893 29.6154ZM53.7143 31.9231C53.7143 31.216 53.8533 30.5158 54.1234 29.8625C54.3936 29.2092 54.7895 28.6156 55.2886 28.1156C55.7877 27.6156 56.3802 27.2189 57.0324 26.9483C57.6845 26.6777 58.3834 26.5385 59.0893 26.5385C59.7951 26.5385 60.4941 26.6777 61.1462 26.9483C61.7983 27.2189 62.3909 27.6156 62.89 28.1156C63.3891 28.6156 63.785 29.2092 64.0551 29.8625C64.3253 30.5158 64.4643 31.216 64.4643 31.9231C64.4643 33.3512 63.898 34.7208 62.89 35.7306C61.882 36.7404 60.5148 37.3077 59.0893 37.3077C57.6637 37.3077 56.2966 36.7404 55.2886 35.7306C54.2806 34.7208 53.7143 33.3512 53.7143 31.9231ZM27.6071 31.9231C27.6071 31.311 27.8498 30.7241 28.2818 30.2913C28.7138 29.8585 29.2998 29.6154 29.9107 29.6154C30.5217 29.6154 31.1076 29.8585 31.5396 30.2913C31.9716 30.7241 32.2143 31.311 32.2143 31.9231C32.2143 32.5351 31.9716 33.1221 31.5396 33.5549C31.1076 33.9876 30.5217 34.2308 29.9107 34.2308C29.2998 34.2308 28.7138 33.9876 28.2818 33.5549C27.8498 33.1221 27.6071 32.5351 27.6071 31.9231ZM29.9107 26.5385C28.4852 26.5385 27.118 27.1058 26.11 28.1156C25.102 29.1254 24.5357 30.495 24.5357 31.9231C24.5357 33.3512 25.102 34.7208 26.11 35.7306C27.118 36.7404 28.4852 37.3077 29.9107 37.3077C31.3363 37.3077 32.7034 36.7404 33.7114 35.7306C34.7194 34.7208 35.2857 33.3512 35.2857 31.9231C35.2857 30.495 34.7194 29.1254 33.7114 28.1156C32.7034 27.1058 31.3363 26.5385 29.9107 26.5385ZM33.214 58.0846C32.5195 58.5432 31.7139 58.8049 30.8829 58.8419C30.0518 58.8788 29.2263 58.6897 28.4939 58.2945C27.7615 57.8993 27.1496 57.3129 26.7231 56.5974C26.2966 55.8819 26.0714 55.0641 26.0714 54.2308V44.2308C26.0714 44.0268 26.1523 43.8311 26.2963 43.6868C26.4403 43.5426 26.6356 43.4615 26.8393 43.4615H33.0297C33.1698 42.3351 33.6196 41.2698 34.329 40.3846H26.8393C25.821 40.3846 24.8445 40.7898 24.1245 41.5111C23.4045 42.2324 23 43.2107 23 44.2308V54.2308C22.9996 55.5555 23.3407 56.8579 23.9903 58.0117C24.6399 59.1656 25.5759 60.1319 26.7077 60.8169C27.8395 61.502 29.1287 61.8826 30.4505 61.922C31.7723 61.9613 33.0818 61.6581 34.2522 61.0415C33.7725 60.1082 33.4232 59.1133 33.214 58.0846ZM54.7478 61.0415C55.9182 61.6581 57.2277 61.9613 58.5495 61.922C59.8713 61.8826 61.1605 61.502 62.2923 60.8169C63.4241 60.1319 64.3601 59.1656 65.0097 58.0117C65.6593 56.8579 66.0004 55.5555 66 54.2308V44.2308C66 43.2107 65.5955 42.2324 64.8755 41.5111C64.1555 40.7898 63.179 40.3846 62.1607 40.3846H54.671C55.3797 41.2702 55.8295 42.3353 55.9702 43.4615H62.1607C62.3644 43.4615 62.5597 43.5426 62.7037 43.6868C62.8477 43.8311 62.9286 44.0268 62.9286 44.2308V54.2308C62.9286 55.0641 62.7034 55.8819 62.2769 56.5974C61.8504 57.3129 61.2385 57.8993 60.5061 58.2945C59.7737 58.6897 58.9482 58.8788 58.1171 58.8419C57.2861 58.8049 56.4805 58.5432 55.786 58.0846C55.5768 59.1132 55.2275 60.1082 54.7478 61.0415ZM39.125 40.3846C38.1068 40.3846 37.1302 40.7898 36.4102 41.5111C35.6902 42.2324 35.2857 43.2107 35.2857 44.2308V55.7692C35.2857 58.2174 36.2565 60.5653 37.9845 62.2964C39.7125 64.0275 42.0562 65 44.5 65C46.9438 65 49.2875 64.0275 51.0155 62.2964C52.7435 60.5653 53.7143 58.2174 53.7143 55.7692V44.2308C53.7143 43.2107 53.3098 42.2324 52.5898 41.5111C51.8698 40.7898 50.8932 40.3846 49.875 40.3846H39.125ZM38.3571 44.2308C38.3571 44.0268 38.438 43.8311 38.582 43.6868C38.726 43.5426 38.9214 43.4615 39.125 43.4615H49.875C50.0786 43.4615 50.274 43.5426 50.418 43.6868C50.562 43.8311 50.6429 44.0268 50.6429 44.2308V55.7692C50.6429 57.4013 49.9957 58.9666 48.8437 60.1207C47.6916 61.2747 46.1292 61.9231 44.5 61.9231C42.8708 61.9231 41.3084 61.2747 40.1563 60.1207C39.0043 58.9666 38.3571 57.4013 38.3571 55.7692V44.2308Z" fill="white"/>
</svg>
